<?xml version="1.0" encoding="UTF-8"?>
<svg version="1.1" xmlns="http://www.w3.org/2000/svg" width="501" height="838">
<path d="M0 0 C147.51 0 295.02 0 447 0 C447 17.19188107 447 17.19188107 440.875 25.5625 C439.57722136 27.4629249 438.28037189 29.36398459 436.984375 31.265625 C436.31857422 32.21759766 435.65277344 33.16957031 434.96679688 34.15039062 C431.88286617 38.61856829 429.01253916 43.21604302 426.125 47.8125 C424.95969149 49.64669691 423.79300474 51.48001885 422.625 53.3125 C422.03460938 54.23933594 421.44421875 55.16617188 420.8359375 56.12109375 C415.57951168 64.3636168 410.3047821 72.59445018 405.03222656 80.82666016 C401.68695052 86.05033843 398.34353859 91.27520952 395 96.5 C390.97750656 102.78576129 386.95459444 109.07125252 382.9296875 115.35546875 C376.60686764 125.22879515 370.29047013 135.10602493 364 145 C357.03370716 155.9569438 350.03499968 166.89300601 343.03222656 177.82666016 C339.02583776 184.08267188 335.02161685 190.34007192 331.01806641 196.59790039 C327.588432 201.95812649 324.15593128 207.31648457 320.71875 212.671875 C320.01234375 213.77337891 319.3059375 214.87488281 318.578125 216.00976562 C317.24575694 218.08720793 315.91250333 220.16408272 314.578125 222.24023438 C309.96071048 229.442819 305.48608147 236.71011761 301 244 C349.18 244 397.36 244 447 244 C447 261.1856383 447 261.1856383 441 269.375 C439.70728994 271.26751689 438.41566573 273.16077583 437.125 275.0546875 C436.10792969 276.5102002 436.10792969 276.5102002 435.0703125 277.99511719 C431.57204554 283.07255465 428.30045437 288.29277727 425 293.5 C423.646793 295.61519759 422.29263113 297.72978461 420.9375 299.84375 C417.28158922 305.5561106 413.63848232 311.27652717 410 317 C403.03377266 327.95698524 396.0349995 338.89300629 389.03222656 349.82666016 C385.68695052 355.05033843 382.34353859 360.27520952 379 365.5 C374.97750656 371.78576129 370.95459444 378.07125252 366.9296875 384.35546875 C360.60686764 394.22879515 354.29047013 404.10602493 348 414 C341.03370716 424.9569438 334.03499968 435.89300601 327.03222656 446.82666016 C323.68695052 452.05033843 320.34353859 457.27520952 317 462.5 C312.97750656 468.78576129 308.95459444 475.07125252 304.9296875 481.35546875 C298.52580008 491.35519589 292.12705532 501.35813425 285.75 511.375 C285.24452637 512.16865967 284.73905273 512.96231934 284.21826172 513.7800293 C278.45565736 522.83879968 272.73321288 531.92241294 267 541 C301.65 541 336.3 541 372 541 C372.66 539.35 373.32 537.7 374 536 C374.9901688 534.09969676 376.01118028 532.21529464 377.0546875 530.34375 C377.66304443 529.25006104 378.27140137 528.15637207 378.89819336 527.02954102 C379.55696473 525.85293541 380.21590442 524.67642403 380.875 523.5 C381.55814203 522.27602611 382.24116472 521.0519856 382.92407227 519.82788086 C388.33972766 510.13220731 393.83117565 500.48070662 399.36328125 490.85107422 C402.5616454 485.27969944 405.74935719 479.70222758 408.9375 474.125 C409.27900085 473.52779144 409.62050171 472.93058289 409.97235107 472.3152771 C414.52712931 464.34905743 419.05724025 456.36935333 423.5625 448.375 C430.61470014 435.86263669 437.80292221 423.42940588 445 411 C448.63 411 452.26 411 456 411 C456 471.39 456 531.78 456 594 C439.95761719 593.86335937 423.91523438 593.72671875 407.38671875 593.5859375 C397.2284196 593.53957451 387.07044062 593.49776715 376.91210938 593.4765625 C371.57511007 593.46514115 366.23811537 593.45280257 360.90112305 593.43847656 C360.23226285 593.43672802 359.56340265 593.43497948 358.87427396 593.43317795 C348.09024694 593.40334632 337.30766313 593.31002478 326.52426936 593.19305508 C315.44875348 593.07433719 304.37449968 593.02564622 293.2983554 593.03737414 C287.07969555 593.04175581 280.86480227 593.01469196 274.64691734 592.91166306 C268.78885084 592.81559893 262.93666237 592.8045709 257.07810783 592.85766029 C254.93302562 592.86231301 252.787616 592.83636849 250.64335251 592.77692604 C239.60816074 592.1735128 239.60816074 592.1735128 230.07380891 596.77150011 C226.62922189 601.09864608 224.22597689 605.82372229 221.99185908 610.86075139 C220.63251565 613.79259282 218.95379892 616.34605997 217.13671875 619.015625 C216.56767822 619.88171387 215.9986377 620.74780273 215.41235352 621.64013672 C214.84315186 622.5013916 214.2739502 623.36264648 213.6875 624.25 C207.57594346 633.56143476 201.56454765 642.93133432 195.59765625 652.3359375 C191.74895678 658.40164934 187.87532611 664.45127692 184 670.5 C178.98765387 678.32552615 173.98562373 686.15742184 169 694 C162.03377266 704.95698524 155.0349995 715.89300629 148.03222656 726.82666016 C144.02956386 733.07685355 140.02925352 739.328553 136.02905273 745.58032227 C132.90996148 750.45469627 129.78998294 755.32849497 126.66671753 760.20019531 C125.55558184 761.9334499 124.44473868 763.66689161 123.33398438 765.40039062 C121.93613079 767.5817545 120.53772154 769.76276243 119.13867188 771.94335938 C118.19411133 773.41772461 118.19411133 773.41772461 117.23046875 774.921875 C116.40131958 776.21496582 116.40131958 776.21496582 115.55541992 777.53417969 C114.00006186 779.99990193 112.49990513 782.50015812 111 785 C197.13 785 283.26 785 372 785 C372.66 783.35 373.32 781.7 374 780 C374.9901688 778.09969676 376.01118028 776.21529464 377.0546875 774.34375 C377.66304443 773.25006104 378.27140137 772.15637207 378.89819336 771.02954102 C379.55696473 769.85293541 380.21590442 768.67642403 380.875 767.5 C381.55814203 766.27602611 382.24116472 765.0519856 382.92407227 763.82788086 C388.34131724 754.12936147 393.83414457 744.47486005 399.36767578 734.84228516 C402.54220846 729.31462894 405.70968568 723.78293826 408.875 718.25 C409.21455719 717.65667877 409.55411438 717.06335754 409.90396118 716.45205688 C414.10681056 709.10557838 418.2777572 701.74290727 422.39575195 694.34838867 C423.53978046 692.29856999 424.6892799 690.25179422 425.84448242 688.20825195 C428.85406393 682.88393748 431.77645245 677.5322672 434.59765625 672.10546875 C435.79375697 669.88253593 436.99035554 667.6598709 438.1875 665.4375 C438.70908691 664.38916992 439.23067383 663.34083984 439.76806641 662.26074219 C440.29190918 661.3071582 440.81575195 660.35357422 441.35546875 659.37109375 C442.01518677 658.1015686 442.01518677 658.1015686 442.68823242 656.80639648 C445 655 445 655 456 655 C456 715.39 456 775.78 456 838 C298.92 838 141.84 838 -20 838 C-20 819.64952496 -20 819.64952496 -12.75 809.6875 C-11.26752698 807.51870898 -9.78576187 805.3494339 -8.3046875 803.1796875 C-7.56959961 802.13006836 -6.83451172 801.08044922 -6.07714844 799.99902344 C-3.20560565 795.85303947 -0.53383601 791.59663755 2.125 787.3125 C3.08727101 785.78305398 4.05082113 784.25441201 5.015625 782.7265625 C5.49837891 781.96118164 5.98113281 781.19580078 6.47851562 780.40722656 C12.22340853 771.31790627 18.01390801 762.25733852 23.79101562 753.18847656 C30.36665864 742.86507635 36.93196253 732.53554019 43.46142578 722.18286133 C47.88468013 715.17340054 52.33607977 708.18200578 56.7890625 701.19140625 C60.53890697 695.30233333 64.27563229 689.40521404 68 683.5 C72.90865946 675.71701856 77.84545306 667.95222544 82.7890625 660.19140625 C87.02780829 653.53452134 91.24708873 646.86562077 95.45654297 640.19018555 C99.86711446 633.20008028 104.30544811 626.22776951 108.75390625 619.26171875 C113.88985144 611.20678312 118.93606199 603.10230081 124 595 C76.48 594.67 28.96 594.34 -20 594 C-20 575.66918103 -20 575.66918103 -13.1875 566.625 C-11.79328906 564.63962269 -10.40138035 562.65262677 -9.01171875 560.6640625 C-8.32384277 559.70274414 -7.6359668 558.74142578 -6.92724609 557.75097656 C-4.25928263 553.94269022 -1.86911396 549.99836267 0.5 546 C4.6742455 539.05946051 9.05289581 532.26854153 13.5 525.5 C18.50131288 517.88750444 23.3696284 510.21883569 28.08032227 502.42358398 C31.55053584 496.69447605 35.15609776 491.06421543 38.81225586 485.45239258 C42.18903931 480.26591548 45.51421552 475.04922609 48.8125 469.8125 C53.18987567 462.86313928 57.5867528 455.92664015 62 449 C66.34733081 442.17543249 70.68348458 435.34410065 75 428.5 C79.90865946 420.71701856 84.84545306 412.95222544 89.7890625 405.19140625 C93.53890712 399.3023331 97.27558418 393.40518385 101 387.5 C108.22858035 376.04049616 115.51156556 364.61570487 122.79101562 353.18847656 C124.56929937 350.39666825 126.34725966 347.60465437 128.125 344.8125 C128.99547974 343.44544922 128.99547974 343.44544922 129.88354492 342.05078125 C134.10134661 335.4227225 138.30206057 328.78402138 142.47900391 322.13012695 C147.57427697 314.03657634 152.79612487 306.02394257 158 298 C149.13498886 297.41665375 140.27669077 296.97475655 131.3965826 296.7046957 C127.27037343 296.57493321 123.15739508 296.39984712 119.03881836 296.11401367 C101.16150757 294.29289074 101.16150757 294.29289074 85.10229492 300.32803345 C80.16224539 306.24660621 77.08446467 312.90807064 74.2303772 320.02267456 C72.70345166 323.71760182 70.82988985 326.8104644 68.6328125 330.14453125 C68.04677246 331.09287842 67.46073242 332.04122559 66.85693359 333.01831055 C66.28539551 333.94039307 65.71385742 334.86247559 65.125 335.8125 C59.50422309 344.91509397 53.9221861 354.03996774 48.375 363.1875 C48.0186145 363.77500031 47.662229 364.36250061 47.29504395 364.96780396 C44.23939077 370.00508759 41.18524873 375.04328576 38.1328125 380.08251953 C31.38353677 391.22140336 24.58230523 402.32556946 17.6875 413.375 C17.03442871 414.42268555 16.38135742 415.47037109 15.70849609 416.54980469 C15.10730957 417.51047852 14.50612305 418.47115234 13.88671875 419.4609375 C13.35264404 420.31478027 12.81856934 421.16862305 12.26831055 422.04833984 C11 424 11 424 10 425 C6.7 425 3.4 425 0 425 C0 365.27 0 305.54 0 244 C13.80457031 244.13664063 27.60914063 244.27328125 41.83203125 244.4140625 C50.57758554 244.4604301 59.32276779 244.50223589 68.06835938 244.5234375 C81.95040092 244.55793969 95.83058338 244.6110537 109.71166992 244.78515625 C119.82203376 244.91187903 129.93048088 244.97505585 140.04166621 244.96262586 C145.39425624 244.95824703 150.74246844 244.98520387 156.09415627 245.08833694 C161.13830079 245.18453757 166.17562288 245.19537294 171.22033691 245.14233971 C173.06551011 245.13769361 174.9110666 245.16354892 176.75528526 245.22307396 C185.13733097 245.51818684 185.13733097 245.51818684 193 243 C197.5515139 238.55267193 200.27429738 232.88589413 202.93909299 227.18279815 C204.44194825 224.09069898 206.25557939 221.30716608 208.15234375 218.44140625 C208.77705566 217.46921143 209.40176758 216.4970166 210.04541016 215.49536133 C210.6697998 214.52751709 211.29418945 213.55967285 211.9375 212.5625 C213.31946091 210.41174773 214.7009675 208.26070347 216.08203125 206.109375 C217.08097412 204.55379883 217.08097412 204.55379883 218.10009766 202.96679688 C220.79379109 198.7604537 223.46261852 194.53870968 226.125 190.3125 C230.39859113 183.53007059 234.69273825 176.76109926 239 170 C243.34729051 163.17540629 247.6834287 156.34406585 252 149.5 C259.22858035 138.04049616 266.51156556 126.61570487 273.79101562 115.18847656 C280.35868748 104.87759065 286.91768779 94.56159867 293.43725586 84.22021484 C296.22231274 79.80537012 299.01824983 75.39768218 301.82421875 70.99609375 C302.46681641 69.98804687 303.10941406 68.98 303.77148438 67.94140625 C305.02842141 65.97079549 306.28620528 64.00072455 307.54492188 62.03125 C308.39473633 60.69900391 308.39473633 60.69900391 309.26171875 59.33984375 C309.76662842 58.54956787 310.27153809 57.75929199 310.79174805 56.94506836 C312.02597899 55.024771 312.02597899 55.024771 313 53 C284.6094904 52.51060668 256.22044655 52.16084873 227.82603446 52.00341837 C224.46686163 51.9846717 221.10769677 51.96474629 217.74853516 51.9440918 C217.0798438 51.94000003 216.41115244 51.93590826 215.72219771 51.9316925 C204.92247574 51.86280312 194.12622742 51.69865267 183.32822794 51.49867991 C172.23117888 51.29531248 161.13673616 51.19775042 150.03783083 51.19057769 C143.80857095 51.18324988 137.58790703 51.12917111 131.36076355 50.96009254 C106.68530452 48.88366786 106.68530452 48.88366786 84.38272095 56.65514755 C78.60097953 62.63227107 75.62814478 70.02236851 73.09550476 77.84847069 C71.6162682 82.10391306 69.43113479 85.57529455 66.875 89.25 C66.08853422 90.48366956 65.30665505 91.72028605 64.53125 92.9609375 C64.13035156 93.59741211 63.72945313 94.23388672 63.31640625 94.88964844 C60.63102619 99.19462344 58.00760707 103.5376331 55.375 107.875 C49.68664625 117.24428163 43.95289807 126.58460786 38.19750977 135.9128418 C34.56832756 141.8025237 30.96068956 147.70405202 27.3828125 153.625 C26.99956314 154.25872025 26.61631378 154.89244049 26.22145081 155.54536438 C24.36749381 158.61161755 22.51656016 161.6796258 20.6706543 164.75073242 C19.36397001 166.91426402 18.04447346 169.07013394 16.70947266 171.21630859 C15.67628579 172.8987417 14.6794115 174.60533247 13.75537109 176.35009766 C12.63671875 178.30078125 12.63671875 178.30078125 10 181 C6.7 181 3.4 181 0 181 C0 121.27 0 61.54 0 0 Z M344.62988281 71.88232422 C342.02936141 76.8566589 338.94600222 81.49476079 335.875 86.1875 C334.7029447 88.0229645 333.5336409 89.86018911 332.3671875 91.69921875 C331.80225586 92.58786621 331.23732422 93.47651367 330.65527344 94.39208984 C327.60707782 99.1945715 324.5730031 104.00595182 321.53857422 108.81713867 C317.11531987 115.82659946 312.66392023 122.81799422 308.2109375 129.80859375 C304.46109303 135.69766667 300.72436771 141.59478596 297 147.5 C292.09134054 155.28298144 287.15454694 163.04777456 282.2109375 170.80859375 C278.46109303 176.69766667 274.72436771 182.59478596 271 188.5 C266.09134054 196.28298144 261.15454694 204.04777456 256.2109375 211.80859375 C252.46109303 217.69766667 248.72436771 223.59478596 245 229.5 C240.09134054 237.28298144 235.15454694 245.04777456 230.2109375 252.80859375 C226.46109303 258.69766667 222.72436771 264.59478596 219 270.5 C214.09134054 278.28298144 209.15454694 286.04777456 204.2109375 293.80859375 C200.46109303 299.69766667 196.72436771 305.59478596 193 311.5 C188.09134054 319.28298144 183.15454694 327.04777456 178.2109375 334.80859375 C174.46109288 340.6976669 170.72441582 346.59481615 167 352.5 C159.77141965 363.95950384 152.48843444 375.38429513 145.20898438 386.81152344 C138.63334136 397.13492365 132.06803747 407.46445981 125.53857422 417.81713867 C121.11531987 424.82659946 116.66392023 431.81799422 112.2109375 438.80859375 C108.46109303 444.69766667 104.72436771 450.59478596 101 456.5 C96.09134054 464.28298144 91.15454694 472.04777456 86.2109375 479.80859375 C82.4610926 485.69766735 78.72450472 491.59487191 75 497.5 C70.55247414 504.54854098 66.09434429 511.59027098 61.625 518.625 C61.05394531 519.52541016 60.48289062 520.42582031 59.89453125 521.35351562 C56.70787853 526.36484421 53.45870965 531.31656845 50.07958984 536.20068359 C48.82850141 537.93610673 48.82850141 537.93610673 49 540 C63.57981095 542.41089743 63.57981095 542.41089743 77.16748047 538.52197266 C80.98075966 534.24965728 83.23955433 529.0672405 85.59667969 523.89599609 C88.07681203 518.77781066 91.23777445 514.08824559 94.3125 509.3125 C95.58912264 507.27543015 96.86253444 505.23634474 98.1328125 503.1953125 C98.76993164 502.17469727 99.40705078 501.15408203 100.06347656 500.10253906 C100.7025293 499.07870117 101.34158203 498.05486328 102 497 C109.45671842 485.05345717 116.91862847 473.11090364 124.44873047 461.21044922 C130.3624154 451.85743274 136.21704024 442.4675087 142.07666016 433.08056641 C145.21589223 428.05253513 148.35807151 423.02634659 151.5 418 C152.75001464 416.00000915 154.00001462 414.00000914 155.25 412 C159 406 159 406 162.75 400 C163.67848755 398.51439575 163.67848755 398.51439575 164.62573242 396.9987793 C165.87323247 395.00281172 167.12079088 393.00688061 168.3684082 391.01098633 C171.53214182 385.94959084 174.69479561 380.88752606 177.85546875 375.82421875 C184.02857747 365.93720722 190.21625756 356.06015109 196.44873047 346.21044922 C202.3624154 336.85743274 208.21704024 327.4675087 214.07666016 318.08056641 C217.83790905 312.05626601 221.60315182 306.03446118 225.36767578 300.01220703 C228.53162365 294.95038597 231.69454438 289.88792852 234.85546875 284.82421875 C241.02857747 274.93720722 247.21625756 265.06015109 253.44873047 255.21044922 C259.3624154 245.85743274 265.21704024 236.4675087 271.07666016 227.08056641 C274.83790905 221.05626601 278.60315182 215.03446118 282.36767578 209.01220703 C285.53162365 203.95038597 288.69454438 198.88792852 291.85546875 193.82421875 C298.02857747 183.93720722 304.21625756 174.06015109 310.44873047 164.21044922 C317.00934125 153.83426221 323.49979935 143.41408849 330 133 C337.45079266 121.06295095 344.90516725 109.12883761 352.43115234 97.23901367 C357.20564388 89.68967927 361.93646862 82.11319077 366.66210938 74.53320312 C367.25443359 73.58380859 367.84675781 72.63441406 368.45703125 71.65625 C369.03533691 70.728125 369.61364258 69.8 370.20947266 68.84375 C371.46109211 66.85590388 372.72765495 64.87742349 374.00537109 62.90625 C374.64684082 61.91625 375.28831055 60.92625 375.94921875 59.90625 C376.53405029 59.01228516 377.11888184 58.11832031 377.72143555 57.19726562 C379.16764641 55.1355902 379.16764641 55.1355902 379 53 C359.47577625 49.2076012 353.23072202 54.82004779 344.62988281 71.88232422 Z M257.4375 305.625 C256.14394868 308.42001224 255.10658849 311.19175014 254.11132812 314.10498047 C252.2011859 319.08091774 249.15184522 323.28723124 246.1875 327.6875 C245.00623726 329.53557023 243.83052793 331.38720088 242.66015625 333.2421875 C238.82873921 339.27436718 234.97855834 345.29444754 231.125 351.3125 C230.12593628 352.87291016 230.12593628 352.87291016 229.10668945 354.46484375 C226.39115545 358.70563918 223.67505624 362.94607248 220.95898438 367.18652344 C213.95915357 378.11578947 206.9634587 389.04751388 200 400 C193.03370716 410.9569438 186.03499968 421.89300601 179.03222656 432.82666016 C175.68695052 438.05033843 172.34353859 443.27520952 169 448.5 C164.97750656 454.78576129 160.95459444 461.07125252 156.9296875 467.35546875 C150.6068675 477.22879537 144.29052126 487.10605728 138 497 C132.80269843 505.17373309 127.59366963 513.33989839 122.375 521.5 C121.36179688 523.08554687 121.36179688 523.08554687 120.328125 524.703125 C119.69132813 525.69828125 119.05453125 526.6934375 118.3984375 527.71875 C117.80643555 528.64429688 117.21443359 529.56984375 116.60449219 530.5234375 C115.27869006 532.56983688 113.92230964 534.58616257 112.5390625 536.59375 C110.82039306 538.80474796 110.82039306 538.80474796 111 541 C117.65093973 541.38252705 124.29902635 541.64382015 130.95849609 541.82397461 C133.21933913 541.89909909 135.4794606 542.00124664 137.73779297 542.1315918 C149.83902345 543.30062515 149.83902345 543.30062515 160.95037842 539.62835693 C164.21959725 536.16598003 166.26303429 532.18467899 168.16400146 527.85232544 C169.26483385 525.41320654 170.68174418 523.25960355 172.1796875 521.046875 C173.08008326 519.61581356 173.97853521 518.1835272 174.875 516.75 C175.89579516 515.12627808 176.91662962 513.50258087 177.9375 511.87890625 C178.44539063 511.06953613 178.95328125 510.26016602 179.4765625 509.42626953 C181.93608512 505.50916444 184.40524108 501.59815642 186.875 497.6875 C187.36468262 496.91180664 187.85436523 496.13611328 188.35888672 495.33691406 C192.81819878 488.27765994 197.30266682 481.23451117 201.78857422 474.19213867 C205.53860925 468.30283923 209.27547579 462.40546218 213 456.5 C217.90865946 448.71701856 222.84545306 440.95222544 227.7890625 433.19140625 C231.53890697 427.30233333 235.27563229 421.40521404 239 415.5 C243.90865946 407.71701856 248.84545306 399.95222544 253.7890625 392.19140625 C257.53890712 386.3023331 261.27558418 380.40518385 265 374.5 C272.22858035 363.04049616 279.51156556 351.61570487 286.79101562 340.18847656 C289.72473487 335.58269767 292.6570372 330.9760326 295.5859375 326.3671875 C297.87591906 322.76377634 300.17378503 319.16555796 302.4765625 315.5703125 C303.5678282 313.85945145 304.6589792 312.14851723 305.75 310.4375 C306.25160645 309.65802002 306.75321289 308.87854004 307.27001953 308.07543945 C307.73263184 307.34800537 308.19524414 306.62057129 308.671875 305.87109375 C309.0750293 305.24130615 309.47818359 304.61151855 309.89355469 303.96264648 C311.1614629 301.71359219 312.08713345 299.41231507 313 297 C301.10641217 296.05666713 289.20559936 295.49490114 277.2734375 295.7578125 C276.27528519 295.74989685 275.27713287 295.7419812 274.24873352 295.73382568 C266.27833997 296.02737902 262.04249595 299.17751911 257.4375 305.625 Z M349.875 300.8125 C348.88569819 302.86032591 347.93268841 304.92577693 347 307 C345.18242453 310.02953508 343.23664572 312.97486913 341.3125 315.9375 C340.26111933 317.60475493 339.21298543 319.27406134 338.16796875 320.9453125 C335.1636962 325.74075274 332.14715002 330.52831016 329.125 335.3125 C328.39083862 336.47543579 328.39083862 336.47543579 327.6418457 337.66186523 C323.18236202 344.72157205 318.69758797 351.76508883 314.21142578 358.80786133 C310.46139075 364.69716077 306.72452421 370.59453782 303 376.5 C298.09134054 384.28298144 293.15454694 392.04777456 288.2109375 399.80859375 C284.46109288 405.6976669 280.72441582 411.59481615 277 417.5 C269.77141965 428.95950384 262.48843444 440.38429513 255.20898438 451.81152344 C248.63334136 462.13492365 242.06803747 472.46445981 235.53857422 482.81713867 C231.11531987 489.82659946 226.66392023 496.81799422 222.2109375 503.80859375 C218.46109303 509.69766667 214.72436771 515.59478596 211 521.5 C206.09134054 529.28298144 201.15454694 537.04777456 196.2109375 544.80859375 C192.46109288 550.6976669 188.72441582 556.59481615 185 562.5 C177.77141965 573.95950384 170.48843444 585.38429513 163.20898438 596.81152344 C156.63334136 607.13492365 150.06803747 617.46445981 143.53857422 627.81713867 C139.11531987 634.82659946 134.66392023 641.81799422 130.2109375 648.80859375 C126.46109303 654.69766667 122.72436771 660.59478596 119 666.5 C114.09134054 674.28298144 109.15454694 682.04777456 104.2109375 689.80859375 C100.46109303 695.69766667 96.72436771 701.59478596 93 707.5 C88.09134054 715.28298144 83.15454694 723.04777456 78.2109375 730.80859375 C73.97753697 737.457084 69.76030608 744.11554368 65.56103516 750.78564453 C62.79809496 755.16992869 60.01450368 759.5399997 57.2109375 763.8984375 C56.57285156 764.89294922 55.93476562 765.88746094 55.27734375 766.91210938 C54.03608121 768.84536941 52.79144184 770.77646671 51.54296875 772.70507812 C50.97964844 773.58357422 50.41632813 774.46207031 49.8359375 775.3671875 C49.33626465 776.14175293 48.8365918 776.91631836 48.32177734 777.71435547 C46.95485129 780.07807207 45.95139829 782.44392875 45 785 C48.02089478 785.02716089 51.04154129 785.04691657 54.0625 785.0625 C54.91005859 785.07087891 55.75761719 785.07925781 56.63085938 785.08789062 C65.27608493 785.59755446 65.27608493 785.59755446 72.79296875 782.41796875 C73.25316406 781.68191406 73.71335937 780.94585938 74.1875 780.1875 C75.05181641 778.83398438 75.05181641 778.83398438 75.93359375 777.453125 C76.62531988 776.30383818 77.31377878 775.15258218 78 774 C78.90755208 772.49479167 79.81510417 770.98958333 80.72265625 769.484375 C82.26129876 766.92376057 83.79559094 764.36078571 85.32177734 761.79272461 C88.54739225 756.37235628 91.85901701 751.02786761 95.3125 745.75 C101.71181538 735.96445796 107.88017624 726.03757735 114.06054688 716.11279297 C117.20144302 711.07170211 120.35102745 706.03604824 123.5 701 C127.28674457 694.94239684 131.07261001 688.88424946 134.85546875 682.82421875 C141.02857747 672.93720722 147.21625756 663.06015109 153.44873047 653.21044922 C159.3624154 643.85743274 165.21704024 634.4675087 171.07666016 625.08056641 C174.83790905 619.05626601 178.60315182 613.03446118 182.36767578 607.01220703 C185.53162365 601.95038597 188.69454438 596.88792852 191.85546875 591.82421875 C198.02857747 581.93720722 204.21625756 572.06015109 210.44873047 562.21044922 C216.3624154 552.85743274 222.21704024 543.4675087 228.07666016 534.08056641 C231.83790905 528.05626601 235.60315182 522.03446118 239.36767578 516.01220703 C242.53162365 510.95038597 245.69454438 505.88792852 248.85546875 500.82421875 C255.02857747 490.93720722 261.21625756 481.06015109 267.44873047 471.21044922 C273.3624154 461.85743274 279.21704024 452.4675087 285.07666016 443.08056641 C288.83790905 437.05626601 292.60315182 431.03446118 296.36767578 425.01220703 C299.53162365 419.95038597 302.69454438 414.88792852 305.85546875 409.82421875 C312.02857747 399.93720722 318.21625756 390.06015109 324.44873047 380.21044922 C330.3624154 370.85743274 336.21704024 361.4675087 342.07666016 352.08056641 C344.59465204 348.04756036 347.11455252 344.01574914 349.63476562 339.98413086 C350.87203704 338.00465855 352.10901918 336.0250054 353.34570312 334.04516602 C356.62723071 328.79221492 359.91375962 323.5424726 363.20703125 318.296875 C363.89410156 317.20117188 364.58117187 316.10546875 365.2890625 314.9765625 C366.60920431 312.87147151 367.93075385 310.76726249 369.25390625 308.6640625 C369.846875 307.71789062 370.43984375 306.77171875 371.05078125 305.796875 C371.57325439 304.96510742 372.09572754 304.13333984 372.6340332 303.27636719 C373.86607398 301.2231861 374.96478887 299.15780016 376 297 C370.43769177 296.53748237 364.89851651 296.27785093 359.31640625 296.41015625 C358.39802979 296.42957275 357.47965332 296.44898926 356.53344727 296.46899414 C353.31926907 297.14267994 352.03355335 298.3817307 349.875 300.8125 Z " fill="#000000" transform="translate(20,0)"/>
</svg>
